HIERARCHY
ROOT Hips
{
	OFFSET 52.388401 8.002261 53.555801
	CHANNELS 6 Xposition Yposition Zposition Xrotation Yrotation Zrotation
	JOINT spine
	{
		OFFSET 0.000000 -0.393702 6.846371
		CHANNELS 3 Xrotation Yrotation Zrotation
		JOINT spine1
		{
			OFFSET 0.000000 -0.000001 9.496212
			CHANNELS 3 Xrotation Yrotation Zrotation
			JOINT spine2
			{
				OFFSET 0.000000 -0.000001 9.099091
				CHANNELS 3 Xrotation Yrotation Zrotation
				JOINT Neck
				{
					OFFSET 0.000000 -1.113784 23.361198
					CHANNELS 3 Xrotation Yrotation Zrotation
					JOINT Head
					{
						OFFSET 0.000000 -0.000001 7.058022
						CHANNELS 3 Xrotation Yrotation Zrotation
						End Site
						{
							OFFSET 0.000000 5.634187 17.084404
						}
					}
				}
				JOINT RightShoulder
				{
					OFFSET -3.831360 0.533489 9.826309
					CHANNELS 3 Xrotation Yrotation Zrotation
					JOINT RightArm
					{
						OFFSET 0.000000 -0.000002 12.888100
						CHANNELS 3 Xrotation Yrotation Zrotation
						JOINT RightArmRoll
						{
							OFFSET 0.000000 -0.000001 6.506172
							CHANNELS 3 Xrotation Yrotation Zrotation
							JOINT RightForeArm
							{
								OFFSET 0.000000 -0.000004 18.950096
								CHANNELS 3 Xrotation Yrotation Zrotation
								JOINT RightForeArmRoll
								{
									OFFSET 0.000000 -0.000001 7.300919
									CHANNELS 3 Xrotation Yrotation Zrotation
									JOINT RightHand
									{
										OFFSET 0.000000 -0.000002 14.651398
										CHANNELS 3 Xrotation Yrotation Zrotation
										End Site
										{
											OFFSET 0.000000 0.000000 0.100006
										}
									}
								}
							}
						}
					}
				}
				JOINT LeftShoulder
				{
					OFFSET 3.831360 0.533489 9.826309
					CHANNELS 3 Xrotation Yrotation Zrotation
					JOINT LeftArm
					{
						OFFSET 0.000000 -0.000002 12.888100
						CHANNELS 3 Xrotation Yrotation Zrotation
						JOINT LeftArmRoll
						{
							OFFSET 0.000000 -0.000001 6.506172
							CHANNELS 3 Xrotation Yrotation Zrotation
							JOINT LeftForeArm
							{
								OFFSET 0.000000 -0.000004 18.950096
								CHANNELS 3 Xrotation Yrotation Zrotation
								JOINT LeftForeArmRoll
								{
									OFFSET 0.000000 -0.000001 7.300919
									CHANNELS 3 Xrotation Yrotation Zrotation
									JOINT LeftHand
									{
										OFFSET 0.000000 -0.000002 14.651398
										CHANNELS 3 Xrotation Yrotation Zrotation
										End Site
										{
											OFFSET 0.000000 0.000000 0.100006
										}
									}
								}
							}
						}
					}
				}
			}
		}
	}
	JOINT RightUpLeg
	{
		OFFSET -6.068371 0.933477 -1.112782
		CHANNELS 3 Xrotation Yrotation Zrotation
		JOINT RightUpLegRoll
		{
			OFFSET 0.000000 -0.000003 17.179600
			CHANNELS 3 Xrotation Yrotation Zrotation
			JOINT RightLeg
			{
				OFFSET 0.000000 0.000004 -21.274300
				CHANNELS 3 Xrotation Yrotation Zrotation
				JOINT RightLegRoll
				{
					OFFSET 0.000000 -0.000004 21.343903
					CHANNELS 3 Xrotation Yrotation Zrotation
					JOINT RightFoot
					{
						OFFSET 0.000000 -0.000003 17.765198
						CHANNELS 3 Xrotation Yrotation Zrotation
						JOINT RightToeBase
						{
							OFFSET 0.000000 -0.000002 14.850800
							CHANNELS 3 Xrotation Yrotation Zrotation
							End Site
							{
								OFFSET 0.006294 0.829002 7.192139
							}
						}
					}
				}
			}
		}
	}
	JOINT LeftUpLeg
	{
		OFFSET 6.068371 0.933477 -1.112782
		CHANNELS 3 Xrotation Yrotation Zrotation
		JOINT LeftUpLegRoll
		{
			OFFSET 0.000000 -0.000003 17.179699
			CHANNELS 3 Xrotation Yrotation Zrotation
			JOINT LeftLeg
			{
				OFFSET 0.000000 -0.000004 21.274200
				CHANNELS 3 Xrotation Yrotation Zrotation
				JOINT LeftLegRoll
				{
					OFFSET 0.000000 -0.000003 21.541199
					CHANNELS 3 Xrotation Yrotation Zrotation
					JOINT LeftFoot
					{
						OFFSET 0.000000 -0.000003 17.567894
						CHANNELS 3 Xrotation Yrotation Zrotation
						JOINT LeftToeBase
						{
							OFFSET 0.000000 -0.000003 14.850800
							CHANNELS 3 Xrotation Yrotation Zrotation
							End Site
							{
								OFFSET -0.028210 0.829004 7.192123
							}
						}
					}
				}
			}
		}
	}
}
MOTION
Frames: 5
Frame Time: 0.041667
52.829201 -1.236886 67.288490 39.586738 -4.350010 -4.983320 0.790626 0.267328 0.429749 5.582475 0.544678 0.856708 7.227472 0.554906 0.850128 13.339377 17.821818 -3.918685 18.786287 -17.034171 -0.865292 -6.931618 -43.801802 -6.830202 127.845077 -33.464652 92.819423 0.000004 0.000004 0.000004 38.650948 -17.193473 9.898776 -0.000001 0.000008 -3.002171 -5.000175 -8.000249 0.000087 -20.221714 63.447512 23.844957 106.703756 37.258217 -74.834879 -0.000001 0.000001 0.000004 40.772739 32.923810 -16.068022 0.000002 -0.000011 3.003618 -5.000159 8.000188 -0.000085 -100.550459 -172.616161 -0.541695 -179.999991 0.000005 -0.546001 110.901577 -6.555797 -5.356496 -0.000001 -0.000001 1.143160 72.687092 7.678000 -0.394461 25.456854 -7.355620 -0.000014 -98.663380 168.496327 -0.822721 -0.000012 -0.000006 -0.273223 -73.674389 7.941466 7.620790 -0.000002 -0.000002 0.000934 78.579072 -7.638292 1.255866 25.456955 7.355615 -0.002131 
52.826698 -1.190889 67.217598 39.542103 -4.340041 -4.995048 0.793566 0.266630 0.432194 5.588050 0.543275 0.861438 7.233052 0.553558 0.854873 13.364783 17.800106 -3.933215 18.787702 -17.021509 -0.877552 -6.940510 -43.771462 -6.838777 127.883066 -33.512979 92.706342 0.000006 0.000004 0.000004 38.833853 -17.100413 9.917589 -0.000000 0.000007 -3.002168 -5.000176 -8.000251 0.000081 -20.176638 63.399646 23.793423 106.706474 37.310704 -74.643572 0.000000 0.000000 0.000007 41.034598 32.809223 -16.121611 -0.000001 -0.000016 3.003619 -5.000159 8.000187 -0.000083 -100.628692 -172.640695 -0.527198 -179.999991 0.000005 -0.547995 110.774938 -6.518946 -5.347780 -0.000002 -0.000002 1.148981 72.691149 7.675216 -0.387065 25.456856 -7.355622 -0.000012 -98.749994 168.492407 -0.837439 -0.000006 -0.000005 -0.273787 -73.811307 7.878293 7.618113 -0.000003 -0.000002 -0.013667 78.588409 -7.632150 1.236710 25.456957 7.355615 -0.002131 
52.825302 -1.154180 67.148300 39.496945 -4.329630 -5.005692 0.796558 0.265861 0.434547 5.593610 0.541671 0.865834 7.238612 0.552009 0.859286 13.387307 17.780651 -3.945570 18.792994 -17.014792 -0.886054 -6.950095 -43.743486 -6.848495 127.919334 -33.562136 92.587852 0.000004 0.000003 0.000004 39.015629 -17.007159 9.936568 -0.000001 0.000010 -3.002162 -5.000177 -8.000251 0.000083 -20.135570 63.349745 23.746519 106.711556 37.362706 -74.453112 -0.000000 0.000001 0.000005 41.295573 32.692786 -16.173726 -0.000001 -0.000014 3.003619 -5.000159 8.000186 -0.000080 -100.706187 -172.663453 -0.512174 -179.999991 0.000005 -0.551000 110.648696 -6.482539 -5.338857 -0.000001 -0.000001 1.154821 72.695104 7.672662 -0.380325 25.456858 -7.355622 -0.000012 -98.835836 168.489552 -0.851007 -0.000009 -0.000005 -0.274404 -73.947234 7.815203 7.614997 -0.000002 -0.000002 -0.028290 78.597111 -7.625988 1.217513 25.456957 7.355616 -0.002132 
52.823097 -1.113918 67.072594 39.451046 -4.318717 -5.015606 0.799618 0.265038 0.436915 5.599154 0.539905 0.870096 7.244146 0.550293 0.863566 13.408554 17.762462 -3.956078 18.801347 -17.013328 -0.891117 -6.960158 -43.717585 -6.859016 127.955275 -33.612041 92.466473 0.000004 0.000003 0.000007 39.196618 -16.913734 9.955710 -0.000002 0.000009 -3.002160 -5.000174 -8.000251 0.000081 -20.097651 63.297412 23.703260 106.718345 37.414591 -74.262133 0.000000 0.000002 0.000002 41.555868 32.573490 -16.224121 0.000001 -0.000012 3.003623 -5.000160 8.000186 -0.000083 -100.782686 -172.685282 -0.498159 -179.999991 0.000006 -0.552995 110.522569 -6.446505 -5.329773 -0.000001 -0.000003 1.160660 72.698922 7.670086 -0.373584 25.456860 -7.355620 -0.000011 -98.920878 168.487598 -0.866038 -0.000009 -0.000005 -0.275056 -74.082561 7.751841 7.611419 -0.000003 -0.000001 -0.043014 78.605157 -7.619897 1.198167 25.456955 7.355614 -0.002131 
52.823399 -1.075809 67.003799 39.404225 -4.307383 -5.024821 0.802735 0.264163 0.439282 5.604684 0.537983 0.874226 7.249684 0.548421 0.867716 13.428437 17.745634 -3.964967 18.812610 -17.016552 -0.893092 -6.970687 -43.693550 -6.870332 127.990068 -33.663134 92.341077 0.000005 0.000003 0.000006 39.376532 -16.820295 9.974969 0.000000 0.000010 -3.002148 -5.000176 -8.000253 0.000078 -20.062595 63.243098 23.663320 106.727525 37.465985 -74.072493 -0.000001 0.000001 0.000007 41.815040 32.451711 -16.272608 0.000000 -0.000013 3.003621 -5.000158 8.000189 -0.000083 -100.858309 -172.706142 -0.482351 -179.999991 0.000005 -0.555002 110.396744 -6.410507 -5.321592 -0.000001 -0.000002 1.166499 72.702528 7.667502 -0.366624 25.456858 -7.355621 -0.000011 -99.005067 168.486382 -0.879811 -0.000007 -0.000005 -0.275744 -74.217245 7.688359 7.607562 -0.000001 -0.000001 -0.057824 78.612684 -7.613772 1.178686 25.456953 7.355615 -0.002131 
